<svg width="107" height="26" viewBox="0 0 107 26" fill="none" xmlns="http://www.w3.org/2000/svg">
<path d="M13 0L15.9037 9.00346L25.3637 8.98278L17.6982 14.5265L20.6412 23.5172L13 17.94L5.35879 23.5172L8.30178 14.5265L0.636266 8.98278L10.0963 9.00346L13 0Z" fill="#46C578"/>
<path d="M94 0L96.9037 9.00346L106.364 8.98278L98.6982 14.5265L101.641 23.5172L94 17.94L86.3588 23.5172L89.3018 14.5265L81.6363 8.98278L91.0963 9.00346L94 0Z" fill="#46C578"/>
<path d="M65 0L67.9037 9.00346L77.3637 8.98278L69.6982 14.5265L72.6412 23.5172L65 17.94L57.3588 23.5172L60.3018 14.5265L52.6363 8.98278L62.0963 9.00346L65 0Z" fill="#46C578"/>
<path d="M39 0L41.9037 9.00346L51.3637 8.98278L43.6982 14.5265L46.6412 23.5172L39 17.94L31.3588 23.5172L34.3018 14.5265L26.6363 8.98278L36.0963 9.00346L39 0Z" fill="#46C578"/>
</svg>
