<svg width="29" height="24" viewBox="0 0 29 24" fill="none" xmlns="http://www.w3.org/2000/svg">
<path d="M25.4251 4H6.6251H5.4501H3.1001V6H5.4501H5.8026L9.65895 15.025C10.163 16.206 11.4955 17 12.9713 17H23.0751V15H12.9713C12.4789 15 12.0348 14.735 11.8668 14.342L11.2934 13H22.1891C23.2349 13 24.1631 12.402 24.4487 11.549L26.5554 5.275C26.6565 4.973 26.5848 4.649 26.3639 4.398C26.1407 4.147 25.7929 4 25.4251 4ZM22.1891 11H10.4391L8.303 6H23.8682L22.1891 11Z" fill="white"/>
<path d="M13.0877 21C14.0611 21 14.8502 20.3284 14.8502 19.5C14.8502 18.6716 14.0611 18 13.0877 18C12.1143 18 11.3252 18.6716 11.3252 19.5C11.3252 20.3284 12.1143 21 13.0877 21Z" fill="white"/>
<path d="M20.1375 21C21.1109 21 21.9 20.3284 21.9 19.5C21.9 18.6716 21.1109 18 20.1375 18C19.1641 18 18.375 18.6716 18.375 19.5C18.375 20.3284 19.1641 21 20.1375 21Z" fill="white"/>
</svg>
