<svg width="31" height="23" viewBox="0 0 31 23" fill="none" xmlns="http://www.w3.org/2000/svg">
<path d="M28.6759 0H4.52778H3.01852H0V2.6248H3.01852H3.47129L8.42468 14.4692C9.07215 16.0191 10.7837 17.0612 12.6793 17.0612H25.6574V14.4364H12.6793C12.0469 14.4364 11.4764 14.0886 11.2606 13.5728L10.5241 11.8116H24.5194C25.8627 11.8116 27.055 11.0268 27.4217 9.9073L30.1278 1.67331C30.2576 1.27696 30.1655 0.851746 29.8818 0.522334C29.595 0.192922 29.1483 0 28.6759 0ZM24.5194 9.18679H9.42683L6.683 2.6248H26.6761L24.5194 9.18679Z" fill="black"/>
<path d="M12.8288 22.3107C14.0791 22.3107 15.0927 21.4294 15.0927 20.3421C15.0927 19.2549 14.0791 18.3735 12.8288 18.3735C11.5785 18.3735 10.5649 19.2549 10.5649 20.3421C10.5649 21.4294 11.5785 22.3107 12.8288 22.3107Z" fill="black"/>
<path d="M21.8845 22.3107C23.1348 22.3107 24.1484 21.4294 24.1484 20.3421C24.1484 19.2549 23.1348 18.3735 21.8845 18.3735C20.6342 18.3735 19.6206 19.2549 19.6206 20.3421C19.6206 21.4294 20.6342 22.3107 21.8845 22.3107Z" fill="black"/>
</svg>
