<svg width="44" height="32" viewBox="0 0 44 32" fill="none" xmlns="http://www.w3.org/2000/svg">
<path d="M41.2815 0.392944H7.20398H5.07414H0.814453V4.09702H5.07414H5.71309L12.7032 20.8116C13.6169 22.9989 16.0322 24.4694 18.7073 24.4694H37.0218V20.7654H18.7073C17.8149 20.7654 17.0098 20.2746 16.7052 19.5467L15.6658 17.0613H35.4159C37.3114 17.0613 38.994 15.9538 39.5116 14.374L43.3304 2.75429C43.5135 2.19498 43.3836 1.59492 42.9832 1.13005C42.5785 0.665193 41.9481 0.392944 41.2815 0.392944ZM35.4159 13.3572H14.1174L10.2454 4.09702H38.4594L35.4159 13.3572Z" fill="black"/>
<path d="M18.9184 31.8775C20.6828 31.8775 22.1132 30.6337 22.1132 29.0995C22.1132 27.5652 20.6828 26.3214 18.9184 26.3214C17.154 26.3214 15.7236 27.5652 15.7236 29.0995C15.7236 30.6337 17.154 31.8775 18.9184 31.8775Z" fill="black"/>
<path d="M31.6977 31.8775C33.4621 31.8775 34.8925 30.6337 34.8925 29.0995C34.8925 27.5652 33.4621 26.3214 31.6977 26.3214C29.9333 26.3214 28.5029 27.5652 28.5029 29.0995C28.5029 30.6337 29.9333 31.8775 31.6977 31.8775Z" fill="black"/>
</svg>
