<svg width="24" height="25" viewBox="0 0 24 25" fill="none" xmlns="http://www.w3.org/2000/svg">
<path d="M4.2097 4.84116L4.29289 4.74485C4.65338 4.37634 5.22061 4.34799 5.6129 4.65981L5.70711 4.74485L12 11.1771L18.2929 4.74485C18.6834 4.34563 19.3166 4.34563 19.7071 4.74485C20.0976 5.14407 20.0976 5.79134 19.7071 6.19056L13.415 12.6236L19.7071 19.0567C20.0676 19.4252 20.0953 20.005 19.7903 20.4061L19.7071 20.5024C19.3466 20.8709 18.7794 20.8992 18.3871 20.5874L18.2929 20.5024L12 14.0701L5.70711 20.5024C5.31658 20.9016 4.68342 20.9016 4.29289 20.5024C3.90237 20.1031 3.90237 19.4559 4.29289 19.0567L10.585 12.6236L4.29289 6.19056C3.93241 5.82205 3.90468 5.24218 4.2097 4.84116L4.29289 4.74485L4.2097 4.84116Z" fill="#212121"/>
</svg>
