<svg width="46" height="46" viewBox="0 0 46 46" fill="none" xmlns="http://www.w3.org/2000/svg">
<path d="M23.3784 39.5399C22.4279 39.5399 21.2873 39.1598 20.5269 38.3994C8.17072 27.5639 7.98063 27.3738 7.98063 27.1837L7.79053 26.9936C5.50938 24.7125 4.17871 21.4808 4.17871 18.2492V17.869C4.36881 11.0256 9.88158 5.70288 16.725 5.70288C18.8161 5.70288 21.6675 6.84346 23.3784 9.12461C25.0892 6.84346 28.1308 5.70288 30.2218 5.70288C37.0653 5.70288 42.388 11.0256 42.7682 17.869V18.2492C42.7682 21.6709 41.4375 24.7125 39.1563 27.1837L38.9662 27.3738C38.7761 27.5639 37.2554 28.8946 26.4199 38.5895C25.4694 39.1597 24.519 39.5399 23.3784 39.5399ZM10.8321 26.6134C11.5924 27.3738 15.3944 30.0352 22.4279 36.1182C22.9982 36.6885 23.7586 36.6885 24.3289 36.1182C31.5525 29.655 35.7346 26.0431 36.6851 25.2828L36.8752 25.0927C38.7761 23.1917 39.7266 20.7205 39.7266 18.2492V17.869C39.5365 12.5463 35.3544 8.55432 30.0317 8.55432C28.7011 8.55432 26.0397 9.5048 25.0893 11.5959C24.7091 12.3562 23.9487 12.7364 23.1883 12.7364C22.4279 12.7364 21.6675 12.3562 21.2873 11.5959C20.3369 9.69489 17.8656 8.55432 16.3448 8.55432C11.2123 8.55432 6.84005 12.7364 6.64996 17.869V18.4393C6.64996 20.9105 7.79053 23.3818 9.50139 25.0927L10.8321 26.6134Z" fill="black"/>
</svg>
