<svg width="25" height="25" viewBox="0 0 25 25" fill="none" xmlns="http://www.w3.org/2000/svg">
<path d="M12.6043 21.6667C12.0835 21.6667 11.4585 21.4583 11.0418 21.0417C4.27099 15.1042 4.16683 15 4.16683 14.8958L4.06266 14.7917C2.81266 13.5417 2.0835 11.7708 2.0835 10V9.79167C2.18766 6.04167 5.20849 3.125 8.95849 3.125C10.1043 3.125 11.6668 3.75 12.6043 5C13.5418 3.75 15.2085 3.125 16.3543 3.125C20.1043 3.125 23.021 6.04167 23.2293 9.79167V10C23.2293 11.875 22.5002 13.5417 21.2502 14.8958L21.146 15C21.0418 15.1042 20.2085 15.8333 14.271 21.1458C13.7502 21.4583 13.2293 21.6667 12.6043 21.6667ZM5.72933 14.5833C6.146 15 8.22933 16.4583 12.0835 19.7917C12.396 20.1042 12.8127 20.1042 13.1252 19.7917C17.0835 16.25 19.3752 14.2708 19.896 13.8542L20.0002 13.75C21.0418 12.7083 21.5627 11.3542 21.5627 10V9.79167C21.4585 6.875 19.1668 4.6875 16.2502 4.6875C15.521 4.6875 14.0627 5.20833 13.5418 6.35417C13.3335 6.77083 12.9168 6.97917 12.5002 6.97917C12.0835 6.97917 11.6668 6.77083 11.4585 6.35417C10.9377 5.3125 9.58349 4.6875 8.75016 4.6875C5.93766 4.6875 3.54183 6.97917 3.43766 9.79167V10.1042C3.43766 11.4583 4.06266 12.8125 5.00016 13.75L5.72933 14.5833Z" fill="white"/>
</svg>
