<svg width="33" height="33" viewBox="0 0 33 33" fill="none" xmlns="http://www.w3.org/2000/svg">
<path d="M16.6375 28.6C15.95 28.6 15.125 28.325 14.575 27.775C5.6375 19.9375 5.5 19.8 5.5 19.6625L5.3625 19.525C3.7125 17.875 2.75 15.5375 2.75 13.2V12.925C2.8875 7.975 6.875 4.125 11.825 4.125C13.3375 4.125 15.4 4.95 16.6375 6.6C17.875 4.95 20.075 4.125 21.5875 4.125C26.5375 4.125 30.3875 7.975 30.6625 12.925V13.2C30.6625 15.675 29.7 17.875 28.05 19.6625L27.9125 19.8C27.775 19.9375 26.675 20.9 18.8375 27.9125C18.15 28.325 17.4625 28.6 16.6375 28.6ZM7.5625 19.25C8.1125 19.8 10.8625 21.725 15.95 26.125C16.3625 26.5375 16.9125 26.5375 17.325 26.125C22.55 21.45 25.575 18.8375 26.2625 18.2875L26.4 18.15C27.775 16.775 28.4625 14.9875 28.4625 13.2V12.925C28.325 9.075 25.3 6.1875 21.45 6.1875C20.4875 6.1875 18.5625 6.875 17.875 8.3875C17.6 8.9375 17.05 9.2125 16.5 9.2125C15.95 9.2125 15.4 8.9375 15.125 8.3875C14.4375 7.0125 12.65 6.1875 11.55 6.1875C7.8375 6.1875 4.675 9.2125 4.5375 12.925V13.3375C4.5375 15.125 5.3625 16.9125 6.6 18.15L7.5625 19.25Z" fill="black"/>
</svg>
