<svg width="160" height="78" viewBox="0 0 160 78" fill="none" xmlns="http://www.w3.org/2000/svg">
<path d="M71.0526 16.4984L71.0506 16.5372V16.576C71.0506 24.1708 67.1331 31.5063 62.2564 37.3912C57.3733 43.2837 51.7407 47.4675 48.7101 48.8175C45.4961 50.2492 43.0718 50.8943 41.254 50.922C39.5155 50.9484 38.3742 50.4162 37.5252 49.435C36.6081 48.3751 35.9023 46.6406 35.4463 44.0219C34.9945 41.4264 34.8154 38.1342 34.8154 34.1171C34.8154 18.8253 46.3596 9.24886 58.4777 7.66479C62.3249 7.16189 65.2962 5.70744 67.5291 4.31971C68.4558 3.74378 69.2696 3.16958 69.9414 2.69557C70.071 2.60414 70.1953 2.51643 70.3141 2.43315C70.7494 2.12809 71.0774 1.90846 71.3279 1.75657C71.3766 2.03628 71.4182 2.40217 71.448 2.87437C71.5955 5.21031 71.4206 9.39887 71.0526 16.4984ZM71.8587 1.49262C71.8587 1.49272 71.8562 1.49338 71.8516 1.49426C71.8564 1.49295 71.8587 1.49251 71.8587 1.49262Z" fill="#46C578" stroke="black" stroke-width="3"/>
<path d="M1.86073 21.7423L1.86362 21.7887V21.8352C1.86362 26.7049 4.88848 31.518 8.81861 35.4775C12.7313 39.4195 17.2498 42.2208 19.6714 43.1214C22.2601 44.0842 24.2104 44.5172 25.672 44.5358C27.0903 44.5538 27.9588 44.1847 28.5623 43.6024C29.2087 42.9787 29.7403 41.9293 30.0942 40.2321C30.4462 38.5444 30.5908 36.374 30.5908 33.6777C30.5908 23.8471 21.643 17.387 11.738 16.306C8.61689 15.9654 6.19868 14.9789 4.37361 14.032C3.61804 13.6399 2.95356 13.2485 2.41031 12.9284C2.3059 12.8669 2.20597 12.8081 2.11073 12.7523C1.89292 12.6249 1.71074 12.521 1.55765 12.4371C1.55158 12.4976 1.54577 12.5632 1.5404 12.6342C1.42536 14.155 1.56176 16.9271 1.86073 21.7423ZM0.910885 12.1379C0.910936 12.138 0.913254 12.1385 0.917685 12.1393C0.913052 12.1382 0.910835 12.1378 0.910885 12.1379Z" fill="#46C578" stroke="black" stroke-width="3"/>
<path d="M52.36 73.3C50.62 73.3 49.16 73.04 47.98 72.52C46.8 71.98 45.89 71.29 45.25 70.45C44.63 69.59 44.3 68.68 44.26 67.72C44.26 67.56 44.32 67.42 44.44 67.3C44.58 67.16 44.74 67.09 44.92 67.09H46.45C46.69 67.09 46.87 67.15 46.99 67.27C47.11 67.39 47.19 67.53 47.23 67.69C47.33 68.17 47.57 68.65 47.95 69.13C48.35 69.59 48.9 69.98 49.6 70.3C50.32 70.6 51.24 70.75 52.36 70.75C54.08 70.75 55.34 70.45 56.14 69.85C56.96 69.23 57.37 68.41 57.37 67.39C57.37 66.69 57.15 66.13 56.71 65.71C56.29 65.27 55.64 64.88 54.76 64.54C53.88 64.2 52.74 63.83 51.34 63.43C49.88 63.01 48.67 62.55 47.71 62.05C46.75 61.55 46.03 60.93 45.55 60.19C45.09 59.45 44.86 58.51 44.86 57.37C44.86 56.29 45.15 55.33 45.73 54.49C46.31 53.63 47.14 52.95 48.22 52.45C49.32 51.95 50.65 51.7 52.21 51.7C53.45 51.7 54.53 51.87 55.45 52.21C56.39 52.53 57.17 52.97 57.79 53.53C58.41 54.07 58.88 54.66 59.2 55.3C59.52 55.92 59.69 56.53 59.71 57.13C59.71 57.27 59.66 57.41 59.56 57.55C59.46 57.67 59.3 57.73 59.08 57.73H57.49C57.35 57.73 57.2 57.69 57.04 57.61C56.9 57.53 56.79 57.38 56.71 57.16C56.59 56.34 56.13 55.65 55.33 55.09C54.53 54.53 53.49 54.25 52.21 54.25C50.91 54.25 49.85 54.5 49.03 55C48.23 55.5 47.83 56.28 47.83 57.34C47.83 58.02 48.02 58.59 48.4 59.05C48.78 59.49 49.38 59.88 50.2 60.22C51.02 60.56 52.09 60.92 53.41 61.3C55.01 61.74 56.32 62.21 57.34 62.71C58.36 63.19 59.11 63.8 59.59 64.54C60.09 65.26 60.34 66.19 60.34 67.33C60.34 68.59 60.01 69.67 59.35 70.57C58.69 71.45 57.76 72.13 56.56 72.61C55.38 73.07 53.98 73.3 52.36 73.3ZM69.7021 73.3C68.4221 73.3 67.3321 73.02 66.4321 72.46C65.5521 71.88 64.8821 71.08 64.4221 70.06C63.9621 69.04 63.7321 67.87 63.7321 66.55V58.09C63.7321 57.89 63.7921 57.73 63.9121 57.61C64.0521 57.47 64.2221 57.4 64.4221 57.4H65.9221C66.1221 57.4 66.2821 57.47 66.4021 57.61C66.5421 57.73 66.6121 57.89 66.6121 58.09V66.4C66.6121 69.38 67.9121 70.87 70.5121 70.87C71.7521 70.87 72.7421 70.48 73.4821 69.7C74.2421 68.9 74.6221 67.8 74.6221 66.4V58.09C74.6221 57.89 74.6821 57.73 74.8021 57.61C74.9421 57.47 75.1121 57.4 75.3121 57.4H76.7821C77.0021 57.4 77.1721 57.47 77.2921 57.61C77.4121 57.73 77.4721 57.89 77.4721 58.09V72.31C77.4721 72.51 77.4121 72.68 77.2921 72.82C77.1721 72.94 77.0021 73 76.7821 73H75.4021C75.2021 73 75.0321 72.94 74.8921 72.82C74.7721 72.68 74.7121 72.51 74.7121 72.31V70.99C74.1721 71.69 73.5121 72.25 72.7321 72.67C71.9721 73.09 70.9621 73.3 69.7021 73.3ZM82.619 73C82.419 73 82.249 72.94 82.109 72.82C81.989 72.68 81.929 72.51 81.929 72.31V58.09C81.929 57.89 81.989 57.73 82.109 57.61C82.249 57.47 82.419 57.4 82.619 57.4H84.029C84.229 57.4 84.389 57.47 84.509 57.61C84.649 57.73 84.719 57.89 84.719 58.09V59.41C85.239 58.73 85.889 58.18 86.669 57.76C87.469 57.32 88.489 57.1 89.729 57.1C91.029 57.1 92.129 57.39 93.029 57.97C93.949 58.53 94.639 59.32 95.099 60.34C95.559 61.34 95.789 62.51 95.789 63.85V72.31C95.789 72.51 95.729 72.68 95.609 72.82C95.489 72.94 95.329 73 95.129 73H93.629C93.429 73 93.259 72.94 93.119 72.82C92.999 72.68 92.939 72.51 92.939 72.31V64C92.939 62.6 92.599 61.51 91.919 60.73C91.239 59.93 90.239 59.53 88.919 59.53C87.679 59.53 86.679 59.93 85.919 60.73C85.179 61.51 84.809 62.6 84.809 64V72.31C84.809 72.51 84.739 72.68 84.599 72.82C84.479 72.94 84.319 73 84.119 73H82.619ZM108.072 73.3C106.232 73.3 104.702 72.96 103.482 72.28C102.282 71.6 101.372 70.65 100.752 69.43C100.132 68.21 99.7923 66.79 99.7323 65.17C99.7123 64.35 99.7023 63.47 99.7023 62.53C99.7023 61.59 99.7123 60.69 99.7323 59.83C99.7923 58.21 100.132 56.79 100.752 55.57C101.372 54.35 102.282 53.4 103.482 52.72C104.702 52.04 106.232 51.7 108.072 51.7C109.452 51.7 110.662 51.89 111.702 52.27C112.742 52.65 113.602 53.16 114.282 53.8C114.982 54.44 115.512 55.16 115.872 55.96C116.232 56.74 116.432 57.55 116.472 58.39C116.492 58.57 116.432 58.72 116.292 58.84C116.172 58.96 116.022 59.02 115.842 59.02H114.192C114.012 59.02 113.852 58.97 113.712 58.87C113.592 58.77 113.502 58.59 113.442 58.33C113.102 56.77 112.462 55.7 111.522 55.12C110.602 54.54 109.442 54.25 108.042 54.25C106.442 54.25 105.172 54.71 104.232 55.63C103.292 56.53 102.782 57.98 102.702 59.98C102.642 61.62 102.642 63.3 102.702 65.02C102.782 67.02 103.292 68.48 104.232 69.4C105.172 70.3 106.442 70.75 108.042 70.75C109.442 70.75 110.602 70.46 111.522 69.88C112.462 69.3 113.102 68.23 113.442 66.67C113.502 66.41 113.592 66.23 113.712 66.13C113.852 66.03 114.012 65.98 114.192 65.98H115.842C116.022 65.98 116.172 66.04 116.292 66.16C116.432 66.28 116.492 66.43 116.472 66.61C116.432 67.45 116.232 68.27 115.872 69.07C115.512 69.85 114.982 70.56 114.282 71.2C113.602 71.84 112.742 72.35 111.702 72.73C110.662 73.11 109.452 73.3 108.072 73.3ZM120.823 73C120.623 73 120.453 72.94 120.313 72.82C120.193 72.68 120.133 72.51 120.133 72.31V52.39C120.133 52.19 120.193 52.03 120.313 51.91C120.453 51.77 120.623 51.7 120.823 51.7H122.323C122.543 51.7 122.713 51.77 122.833 51.91C122.953 52.03 123.013 52.19 123.013 52.39V59.38C123.553 58.7 124.213 58.15 124.993 57.73C125.773 57.31 126.763 57.1 127.963 57.1C129.263 57.1 130.363 57.39 131.263 57.97C132.183 58.53 132.873 59.32 133.333 60.34C133.813 61.34 134.053 62.51 134.053 63.85V72.31C134.053 72.51 133.993 72.68 133.873 72.82C133.753 72.94 133.583 73 133.363 73H131.863C131.663 73 131.493 72.94 131.353 72.82C131.233 72.68 131.173 72.51 131.173 72.31V64C131.173 62.6 130.833 61.51 130.153 60.73C129.473 59.93 128.473 59.53 127.153 59.53C125.913 59.53 124.913 59.93 124.153 60.73C123.393 61.51 123.013 62.6 123.013 64V72.31C123.013 72.51 122.953 72.68 122.833 72.82C122.713 72.94 122.543 73 122.323 73H120.823ZM142.734 73.3C141.734 73.3 140.824 73.1 140.004 72.7C139.184 72.3 138.524 71.76 138.024 71.08C137.524 70.4 137.274 69.63 137.274 68.77C137.274 67.39 137.834 66.29 138.954 65.47C140.074 64.65 141.534 64.11 143.334 63.85L147.804 63.22V62.35C147.804 61.39 147.524 60.64 146.964 60.1C146.424 59.56 145.534 59.29 144.294 59.29C143.394 59.29 142.664 59.47 142.104 59.83C141.564 60.19 141.184 60.65 140.964 61.21C140.844 61.51 140.634 61.66 140.334 61.66H138.984C138.764 61.66 138.594 61.6 138.474 61.48C138.374 61.34 138.324 61.18 138.324 61C138.324 60.7 138.434 60.33 138.654 59.89C138.894 59.45 139.254 59.02 139.734 58.6C140.214 58.18 140.824 57.83 141.564 57.55C142.324 57.25 143.244 57.1 144.324 57.1C145.524 57.1 146.534 57.26 147.354 57.58C148.174 57.88 148.814 58.29 149.274 58.81C149.754 59.33 150.094 59.92 150.294 60.58C150.514 61.24 150.624 61.91 150.624 62.59V72.31C150.624 72.51 150.554 72.68 150.414 72.82C150.294 72.94 150.134 73 149.934 73H148.554C148.334 73 148.164 72.94 148.044 72.82C147.924 72.68 147.864 72.51 147.864 72.31V71.02C147.604 71.38 147.254 71.74 146.814 72.1C146.374 72.44 145.824 72.73 145.164 72.97C144.504 73.19 143.694 73.3 142.734 73.3ZM143.364 71.05C144.184 71.05 144.934 70.88 145.614 70.54C146.294 70.18 146.824 69.63 147.204 68.89C147.604 68.15 147.804 67.22 147.804 66.1V65.26L144.324 65.77C142.904 65.97 141.834 66.31 141.114 66.79C140.394 67.25 140.034 67.84 140.034 68.56C140.034 69.12 140.194 69.59 140.514 69.97C140.854 70.33 141.274 70.6 141.774 70.78C142.294 70.96 142.824 71.05 143.364 71.05ZM155.627 73C155.427 73 155.257 72.94 155.117 72.82C154.997 72.68 154.937 72.51 154.937 72.31V58.09C154.937 57.89 154.997 57.73 155.117 57.61C155.257 57.47 155.427 57.4 155.627 57.4H157.067C157.267 57.4 157.427 57.47 157.547 57.61C157.667 57.73 157.727 57.89 157.727 58.09V72.31C157.727 72.51 157.667 72.68 157.547 72.82C157.427 72.94 157.267 73 157.067 73H155.627ZM155.387 54.49C155.187 54.49 155.017 54.43 154.877 54.31C154.757 54.17 154.697 54 154.697 53.8V52.18C154.697 51.98 154.757 51.82 154.877 51.7C155.017 51.56 155.187 51.49 155.387 51.49H157.277C157.477 51.49 157.637 51.56 157.757 51.7C157.897 51.82 157.967 51.98 157.967 52.18V53.8C157.967 54 157.897 54.17 157.757 54.31C157.637 54.43 157.477 54.49 157.277 54.49H155.387Z" fill="black"/>
<path d="M32.0908 71.3164C32.0908 66.3101 32.2132 61.6827 33.8377 56.8762C34.7572 54.1556 35.7286 51.4895 36.9893 48.9012C37.8582 47.1174 38.8777 45.4868 39.9879 43.8391C41.4603 41.6537 42.7323 39.3037 44.3821 37.2406C46.1372 35.046 47.4217 32.7141 49.3437 30.6422C50.2232 29.694 51.0831 28.6898 52.1891 27.9957C52.6528 27.7047 53.4031 27.3595 53.6479 26.8767" stroke="black" stroke-width="3" stroke-linecap="round"/>
<path d="M32.4157 71.5825C32.4157 68.1513 32.5018 64.7533 32.6783 61.3343C32.7453 60.0381 33.1621 58.8022 33.1621 57.4982C33.1621 56.2883 33.5417 54.6421 33.1068 53.4725C31.8599 50.119 31.2954 46.6121 30.1904 43.2131C29.2047 40.1812 27.5494 37.0161 25.339 34.4481C23.4776 32.2854 21.3722 30.4422 19.3957 28.3594C18.7806 27.7111 18.2415 27.5258 17.3777 27.1773C16.4747 26.813 15.6943 26.1584 14.7378 25.9172C13.6577 25.6449 12.3862 25.0139 11.2686 25.0139" stroke="black" stroke-width="3" stroke-linecap="round"/>
</svg>
