<svg width="23" height="36" viewBox="0 0 23 36" fill="none" xmlns="http://www.w3.org/2000/svg">
<path d="M11.1122 14.1189C7.39321 14.1189 4.34631 11.0226 4.34631 7.24317C4.39112 3.46379 7.39321 0.367432 11.1122 0.367432C14.8312 0.367432 17.8781 3.46379 17.8781 7.24317C17.8781 11.0226 14.876 14.1189 11.1122 14.1189ZM11.1122 3.46379C9.05108 3.46379 7.39321 5.14858 7.39321 7.24317C7.39321 9.33777 9.05108 11.0226 11.1122 11.0226C13.1734 11.0226 14.8312 9.33777 14.8312 7.24317C14.8312 5.14858 13.1734 3.46379 11.1122 3.46379Z" fill="black"/>
<path d="M19.2224 35.9265V27.415C19.2224 22.8616 15.593 19.2188 11.157 19.2188C6.67629 19.2188 3.09171 22.9071 3.09171 27.415V35.9265H0V27.415C0 21.1768 4.97362 16.1224 11.1122 16.1224C17.2508 16.1224 22.2244 21.1768 22.2244 27.415V35.9265H19.2224Z" fill="black"/>
</svg>
