<svg width="18" height="28" viewBox="0 0 18 28" fill="none" xmlns="http://www.w3.org/2000/svg">
<path d="M8.72704 10.7998C5.8063 10.7998 3.4134 8.36806 3.4134 5.3999C3.44859 2.43174 5.8063 0 8.72704 0C11.6478 0 14.0407 2.43174 14.0407 5.3999C14.0407 8.36806 11.683 10.7998 8.72704 10.7998ZM8.72704 2.43174C7.10832 2.43174 5.8063 3.7549 5.8063 5.3999C5.8063 7.0449 7.10832 8.36806 8.72704 8.36806C10.3458 8.36806 11.6478 7.0449 11.6478 5.3999C11.6478 3.7549 10.3458 2.43174 8.72704 2.43174Z" fill="black"/>
<path d="M15.0964 27.9265V21.242C15.0964 17.6659 12.246 14.805 8.76223 14.805C5.24326 14.805 2.42809 17.7017 2.42809 21.242V27.9265H0V21.242C0 16.3427 3.90606 12.3733 8.72704 12.3733C13.548 12.3733 17.4541 16.3427 17.4541 21.242V27.9265H15.0964Z" fill="black"/>
</svg>
