<svg width="16" height="16" viewBox="0 0 16 16" fill="none" xmlns="http://www.w3.org/2000/svg">
<path d="M6.6665 1.66675C9.42793 1.66675 11.6665 3.90532 11.6665 6.66675C11.6665 7.80685 11.2849 8.85782 10.6425 9.69893L13.8046 12.862C14.0649 13.1224 14.0649 13.5445 13.8046 13.8048C13.5643 14.0451 13.1861 14.0636 12.9246 13.8603L12.8618 13.8048L9.69868 10.6427C8.85758 11.2852 7.8066 11.6667 6.6665 11.6667C3.90508 11.6667 1.6665 9.42817 1.6665 6.66675C1.6665 3.90532 3.90508 1.66675 6.6665 1.66675ZM6.6665 3.00008C4.64146 3.00008 2.99984 4.6417 2.99984 6.66675C2.99984 8.69179 4.64146 10.3334 6.6665 10.3334C8.69155 10.3334 10.3332 8.69179 10.3332 6.66675C10.3332 4.6417 8.69155 3.00008 6.6665 3.00008Z" fill="#989DB5"/>
</svg>
